<svg width="92" height="10" viewBox="0 0 92 10" fill="none" xmlns="http://www.w3.org/2000/svg">
<path d="M5.42071 0.449999L2.7307 3.42L5.70071 7.82H4.68071L2.1607 4.01L1.0307 5.2V7.82H0.170705V0.449999H1.0307V4.22L4.3807 0.449999H5.42071ZM10.2348 0.449999L12.6048 7.82H11.6948L10.9848 5.48H8.35477L7.61477 7.82H6.76477L9.13477 0.449999H10.2348ZM10.7948 4.8L10.2448 3.01C10.0548 2.39 9.90477 1.82 9.72477 1.12H9.57477C9.40477 1.82 9.25477 2.38 9.06477 3L8.52477 4.8H10.7948ZM14.3887 0.449999H16.6687C18.8387 0.449999 20.1587 1.62 20.1587 4.1C20.1587 6.58 18.6987 7.82 16.5287 7.82H14.3887V0.449999ZM15.2587 1.16V7.11H16.4987C18.1387 7.11 19.2387 6.19 19.2387 4.11C19.2387 2.03 18.2287 1.16 16.5787 1.16H15.2587ZM24.8401 0.32C26.6101 0.32 27.8801 1.7 27.8801 4.13C27.8801 6.55 26.6001 7.96 24.8401 7.96C23.0701 7.96 21.8001 6.57 21.8001 4.15C21.8001 1.72 23.0901 0.32 24.8401 0.32ZM24.8401 1.04C23.5901 1.04 22.7201 2.1 22.7201 4.14C22.7201 6.17 23.5901 7.24 24.8401 7.24C26.1001 7.24 26.9601 6.17 26.9601 4.14C26.9601 2.1 26.1001 1.04 24.8401 1.04ZM35.2043 0.449999L32.5143 3.42L35.4843 7.82H34.4643L31.9443 4.01L30.8143 5.2V7.82H29.9543V0.449999H30.8143V4.22L34.1643 0.449999H35.2043ZM40.0184 0.449999L42.3884 7.82H41.4784L40.7684 5.48H38.1384L37.3984 7.82H36.5484L38.9184 0.449999H40.0184ZM40.5784 4.8L40.0284 3.01C39.8384 2.39 39.6884 1.82 39.5084 1.12H39.3584C39.1884 1.82 39.0384 2.38 38.8484 3L38.3084 4.8H40.5784ZM51.6519 0.449999L49.9319 7.82H48.7819L47.8919 3.64C47.7019 2.77 47.5819 2.06 47.4319 1.23H47.2619C47.1319 2.06 47.0119 2.78 46.8219 3.62L45.8819 7.82H44.7319L43.0919 0.449999H43.9919L44.8319 4.57C45.0019 5.39 45.1219 6.17 45.2419 6.99H45.4119C45.5619 6.18 45.6919 5.4 45.8619 4.61L46.7719 0.449999H47.9819L48.8719 4.67C49.0319 5.45 49.1519 6.11 49.3119 6.99H49.4819C49.6519 6.11 49.7419 5.47 49.9119 4.64L50.7919 0.449999H51.6519ZM55.8184 0.449999L58.1884 7.82H57.2784L56.5684 5.48H53.9384L53.1984 7.82H52.3484L54.7184 0.449999H55.8184ZM56.3784 4.8L55.8284 3.01C55.6384 2.39 55.4884 1.82 55.3084 1.12H55.1584C54.9884 1.82 54.8384 2.38 54.6484 3L54.1084 4.8H56.3784ZM68.5338 2.36L67.6838 2.58C67.4338 1.59 66.8238 1.04 65.8938 1.04C64.6238 1.04 63.7138 2.11 63.7138 4.14C63.7138 6.16 64.5638 7.24 65.8838 7.24C67.1138 7.24 67.7138 6.16 67.7638 4.82H65.8138V4.11H68.5838V7.85H67.9738L67.8738 6.67C67.4838 7.5 66.7438 7.96 65.8138 7.96C64.0438 7.96 62.7938 6.58 62.7938 4.15C62.7938 1.72 64.1238 0.32 65.8838 0.32C67.2738 0.32 68.1838 1.13 68.5338 2.36ZM73.2092 2.6L73.1492 3.39C72.5192 3.39 71.8992 3.89 71.5792 4.89V7.82H70.7692V2.71H71.5492V4.01C71.9292 3.03 72.5392 2.6 73.2092 2.6ZM76.7113 2.6C77.9913 2.6 78.9013 3.61 78.9013 5.26C78.9013 6.91 78.0013 7.95 76.7013 7.95C75.4013 7.95 74.5113 6.93 74.5113 5.29C74.5113 3.64 75.4113 2.6 76.7113 2.6ZM76.7113 3.23C75.8513 3.23 75.3413 3.96 75.3413 5.27C75.3413 6.59 75.8513 7.32 76.7013 7.32C77.5513 7.32 78.0713 6.6 78.0713 5.27C78.0713 3.96 77.5613 3.23 76.7113 3.23ZM84.7773 2.71V7.82H83.9973V6.88C83.5873 7.53 82.9173 7.94 82.2173 7.94C81.4173 7.94 80.7873 7.45 80.7873 6.49V2.71H81.6173V6.24C81.6173 6.94 81.9473 7.23 82.4973 7.23C83.0173 7.23 83.6173 6.81 83.9673 6.2V2.71H84.7773ZM87.798 2.71V3.51C88.168 2.92 88.728 2.6 89.308 2.6C90.438 2.6 91.278 3.55 91.278 5.25C91.278 6.95 90.378 7.94 89.258 7.94C88.608 7.94 88.168 7.65 87.828 7.05V9.63H87.018V2.71H87.798ZM87.828 4.24V6.33C88.168 6.98 88.578 7.28 89.088 7.28C89.848 7.28 90.448 6.6 90.448 5.27C90.448 3.94 89.888 3.26 89.148 3.26C88.638 3.26 88.168 3.57 87.828 4.24Z" fill="#767676"/>
</svg>
